<?xml version="1.0" encoding="UTF-8" standalone="no"?>
<svg
   xmlns:dc="http://purl.org/dc/elements/1.1/"
   xmlns:cc="http://creativecommons.org/ns#"
   xmlns:rdf="http://www.w3.org/1999/02/22-rdf-syntax-ns#"
   xmlns:svg="http://www.w3.org/2000/svg"
   xmlns="http://www.w3.org/2000/svg"
   xmlns:sodipodi="http://sodipodi.sourceforge.net/DTD/sodipodi-0.dtd"
   xmlns:inkscape="http://www.inkscape.org/namespaces/inkscape"
   version="1.1"
   width="63.599998"
   height="63.599998"
   viewbox="0 0 17 17"
   id="svg38"
   sodipodi:docname="lightning-rainy.svg"
   inkscape:version="1.0.1 (3bc2e813f5, 2020-09-07)">
  <metadata
     id="metadata42">
    <rdf:RDF>
      <cc:Work
         rdf:about="">
        <dc:format>image/svg+xml</dc:format>
        <dc:type
           rdf:resource="http://purl.org/dc/dcmitype/StillImage" />
        <dc:title />
      </cc:Work>
    </rdf:RDF>
  </metadata>
  <sodipodi:namedview
     pagecolor="#ffffff"
     bordercolor="#666666"
     borderopacity="1"
     objecttolerance="10"
     gridtolerance="10"
     guidetolerance="10"
     inkscape:pageopacity="0"
     inkscape:pageshadow="2"
     inkscape:window-width="1984"
     inkscape:window-height="962"
     id="namedview40"
     showgrid="false"
     inkscape:zoom="6.3212803"
     inkscape:cx="23.5"
     inkscape:cy="23.5"
     inkscape:window-x="0"
     inkscape:window-y="0"
     inkscape:window-maximized="0"
     inkscape:current-layer="thunder"
     inkscape:document-rotation="0" />
  <defs
     id="defs15">
    <filter
       id="blur"
       width="2"
       height="2">
      <feComponentTransfer
         id="feComponentTransfer4">
        <feFuncA
           type="linear"
           slope="0.05"
           id="feFuncA2" />
      </feComponentTransfer>
      <feMerge
         id="feMerge10">
        <feMergeNode
           id="feMergeNode6" />
        <feMergeNode
           in="SourceGraphic"
           id="feMergeNode8" />
      </feMerge>
    </filter>
    <style
       type="text/css"
       id="style13"><![CDATA[

]]></style>
  </defs>
  <g
     filter="url(#blur)"
     id="thunder">
    <g
       transform="matrix(1.2119812,0,0,1.0823408,16.726726,3.5318485)"
       id="g35">
      <g
         class="am-weather-cloud-1"
         id="g19">
        <path
           d="m 47.7,35.4 c 0,-4.6 -3.7,-8.2 -8.2,-8.2 -1,0 -1.9,0.2 -2.8,0.5 -0.3,-3.4 -3.1,-6.2 -6.6,-6.2 -3.7,0 -6.7,3 -6.7,6.7 0,0.8 0.2,1.6 0.4,2.3 -0.3,-0.1 -0.7,-0.1 -1,-0.1 -3.7,0 -6.7,3 -6.7,6.7 0,3.6 2.9,6.6 6.5,6.7 h 17.2 c 4.4,-0.5 7.9,-4 7.9,-8.4 z"
           fill="#b7b7b7"
           transform="matrix(0.6,0,0,0.6,-10,-6)"
           id="path17" />
      </g>
      <g
         id="g23">
        <path
           d="m 47.7,35.4 c 0,-4.6 -3.7,-8.2 -8.2,-8.2 -1,0 -1.9,0.2 -2.8,0.5 -0.3,-3.4 -3.1,-6.2 -6.6,-6.2 -3.7,0 -6.7,3 -6.7,6.7 0,0.8 0.2,1.6 0.4,2.3 -0.3,-0.1 -0.7,-0.1 -1,-0.1 -3.7,0 -6.7,3 -6.7,6.7 0,3.6 2.9,6.6 6.5,6.7 h 17.2 c 4.4,-0.5 7.9,-4 7.9,-8.4 z"
           fill="#d4d4d4"
           transform="translate(-20,-12)"
           id="path21" />
      </g>
      <g
         transform="matrix(1.2,0,0,1.2,-9,28)"
         id="g27">
        <polygon
           class="am-weather-stroke"
           fill="#fddb4e"
           points="20.3,4.3 11.5,14.6 14.9,6.9 11.1,6.9 14.3,-2.9 20.5,-2.9 16.4,4.3 "
           id="polygon25" />
      </g>
      <g
         transform="rotate(10,-149.02073,139.73058)"
         id="g33">
        <line
           class="am-weather-rain-1"
           fill="none"
           stroke="#91c0f8"
           stroke-dasharray="4, 7"
           stroke-linecap="round"
           stroke-width="2"
           transform="translate(-18,9)"
           x1="0"
           x2="0"
           y1="0"
           y2="8"
           id="line29" />
        <line
           class="am-weather-rain-2"
           fill="none"
           stroke="#91c0f8"
           stroke-dasharray="4, 7"
           stroke-linecap="round"
           stroke-width="2"
           transform="translate(-4,6)"
           x1="0"
           x2="0"
           y1="0"
           y2="8"
           id="line31" />
      </g>
    </g>
  </g>
</svg>
