<?xml version="1.0" encoding="UTF-8" standalone="no"?>
<svg
   xmlns:dc="http://purl.org/dc/elements/1.1/"
   xmlns:cc="http://creativecommons.org/ns#"
   xmlns:rdf="http://www.w3.org/1999/02/22-rdf-syntax-ns#"
   xmlns:svg="http://www.w3.org/2000/svg"
   xmlns="http://www.w3.org/2000/svg"
   xmlns:sodipodi="http://sodipodi.sourceforge.net/DTD/sodipodi-0.dtd"
   xmlns:inkscape="http://www.inkscape.org/namespaces/inkscape"
   version="1.1"
   width="63.799999"
   height="63.799999"
   viewbox="0 0 17 17"
   id="svg54"
   sodipodi:docname="snowy-rainy.svg"
   inkscape:version="1.0.1 (3bc2e813f5, 2020-09-07)">
  <metadata
     id="metadata58">
    <rdf:RDF>
      <cc:Work
         rdf:about="">
        <dc:format>image/svg+xml</dc:format>
        <dc:type
           rdf:resource="http://purl.org/dc/dcmitype/StillImage" />
        <dc:title />
      </cc:Work>
    </rdf:RDF>
  </metadata>
  <sodipodi:namedview
     pagecolor="#ffffff"
     bordercolor="#666666"
     borderopacity="1"
     objecttolerance="10"
     gridtolerance="10"
     guidetolerance="10"
     inkscape:pageopacity="0"
     inkscape:pageshadow="2"
     inkscape:window-width="1736"
     inkscape:window-height="829"
     id="namedview56"
     showgrid="false"
     inkscape:zoom="4.1039033"
     inkscape:cx="20"
     inkscape:cy="20"
     inkscape:window-x="1754"
     inkscape:window-y="391"
     inkscape:window-maximized="0"
     inkscape:current-layer="snowy-6"
     inkscape:document-rotation="0" />
  <defs
     id="defs15">
    <filter
       id="blur"
       width="2"
       height="2">
      <feComponentTransfer
         id="feComponentTransfer4">
        <feFuncA
           type="linear"
           slope="0.05"
           id="feFuncA2" />
      </feComponentTransfer>
      <feMerge
         id="feMerge10">
        <feMergeNode
           id="feMergeNode6" />
        <feMergeNode
           in="SourceGraphic"
           id="feMergeNode8" />
      </feMerge>
    </filter>
    <style
       type="text/css"
       id="style13"><![CDATA[

]]></style>
  </defs>
  <g
     filter="url(#blur)"
     id="snowy-6">
    <g
       transform="matrix(1.2353919,0.21783293,-0.21783293,1.2353919,34.709103,42.98847)"
       id="g21">
      <line
         class="am-weather-rain-1"
         fill="none"
         stroke="#91c0f8"
         stroke-dasharray="4, 7"
         stroke-linecap="round"
         stroke-width="2"
         transform="translate(-6,1)"
         x1="0"
         x2="0"
         y1="0"
         y2="8"
         id="line17" />
      <line
         class="am-weather-rain-2"
         fill="none"
         stroke="#91c0f8"
         stroke-dasharray="4, 7"
         stroke-linecap="round"
         stroke-width="2"
         transform="translate(0,-1)"
         x1="0"
         x2="0"
         y1="0"
         y2="8"
         id="line19" />
    </g>
    <g
       transform="matrix(1.2544498,0,0,1.2544498,15.892354,-2.1717229)"
       id="g51"><g
   class="am-weather-cloud-2 am-weather-easing-ease-in-out"
   id="g25">
  <path
     d="m 47.7,35.4 c 0,-4.6 -3.7,-8.2 -8.2,-8.2 -1,0 -1.9,0.2 -2.8,0.5 -0.3,-3.4 -3.1,-6.2 -6.6,-6.2 -3.7,0 -6.7,3 -6.7,6.7 0,0.8 0.2,1.6 0.4,2.3 -0.3,-0.1 -0.7,-0.1 -1,-0.1 -3.7,0 -6.7,3 -6.7,6.7 0,3.6 2.9,6.6 6.5,6.7 h 17.2 c 4.4,-0.5 7.9,-4 7.9,-8.4 z"
     fill="#d4d4d4"
     transform="translate(-20,-11)"
     id="path23" />
</g>
<g
   class="am-weather-snow-1"
   id="g37">
  <g
     transform="translate(3,28)"
     id="g35">
    <line
       fill="none"
       stroke="#b4cde8"
       stroke-linecap="round"
       stroke-width="1.2"
       transform="translate(0,9)"
       x1="0"
       x2="0"
       y1="-2.5"
       y2="2.5"
       id="line27" />
    <line
       fill="none"
       stroke="#b4cde8"
       stroke-linecap="round"
       stroke-width="1"
       transform="rotate(45,-10.863961,4.5)"
       x1="0"
       x2="0"
       y1="-2.5"
       y2="2.5"
       id="line29" />
    <line
       fill="none"
       stroke="#b4cde8"
       stroke-linecap="round"
       stroke-width="1"
       transform="rotate(90,-4.5,4.5)"
       x1="0"
       x2="0"
       y1="-2.5"
       y2="2.5"
       id="line31" />
    <line
       fill="none"
       stroke="#b4cde8"
       stroke-linecap="round"
       stroke-width="1"
       transform="rotate(135,-1.863961,4.5)"
       x1="0"
       x2="0"
       y1="-2.5"
       y2="2.5"
       id="line33" />
  </g>
</g>


s
			<g
   class="am-weather-snow-3"
   id="g49">
  <g
     transform="translate(20,28)"
     id="g47">
    <line
       fill="none"
       stroke="#b4cde8"
       stroke-linecap="round"
       stroke-width="1.2"
       transform="translate(0,9)"
       x1="0"
       x2="0"
       y1="-2.5"
       y2="2.5"
       id="line39" />
    <line
       fill="none"
       stroke="#b4cde8"
       stroke-linecap="round"
       stroke-width="1"
       transform="rotate(45,-10.863961,4.5)"
       x1="0"
       x2="0"
       y1="-2.5"
       y2="2.5"
       id="line41" />
    <line
       fill="none"
       stroke="#b4cde8"
       stroke-linecap="round"
       stroke-width="1"
       transform="rotate(90,-4.5,4.5)"
       x1="0"
       x2="0"
       y1="-2.5"
       y2="2.5"
       id="line43" />
    <line
       fill="none"
       stroke="#b4cde8"
       stroke-linecap="round"
       stroke-width="1"
       transform="rotate(135,-1.863961,4.5)"
       x1="0"
       x2="0"
       y1="-2.5"
       y2="2.5"
       id="line45" />
  </g>
</g>
</g>
  </g>
</svg>
